<svg xmlns="http://www.w3.org/2000/svg" viewBox="0 0 417 530" font-family="Arial, Helvetica, sans-serif">
<rect width="417" height="530" fill="#ffffff"/>
<defs><marker id="ar" viewBox="0 0 10 10" refX="9" refY="5" markerWidth="8" markerHeight="8" orient="auto-start-reverse"><path d="M0,0 L10,5 L0,10 z" fill="#343a40"/></marker></defs>
<text x="208" y="30" text-anchor="middle" font-size="18" font-weight="bold" fill="#212529">Рефлекторное действие: путь по дуге</text>
<line x1="208.3" y1="106.0" x2="208.3" y2="150.0" stroke="#343a40" stroke-width="2" marker-end="url(#ar)"/>
<rect x="175.2" y="118.0" width="66.2" height="18" rx="4" fill="#ffffff" stroke="#adb5bd"/>
<text x="208.3" y="132.0" text-anchor="middle" font-size="12" fill="#212529">вдыхание</text>
<line x1="208.3" y1="206.0" x2="208.3" y2="250.0" stroke="#343a40" stroke-width="2" marker-end="url(#ar)"/>
<line x1="208.3" y1="306.0" x2="208.3" y2="350.0" stroke="#343a40" stroke-width="2" marker-end="url(#ar)"/>
<line x1="208.3" y1="406.0" x2="208.3" y2="450.0" stroke="#343a40" stroke-width="2" marker-end="url(#ar)"/>
<rect x="125.7" y="52.0" width="165.2" height="54.0" rx="9" fill="#e7f5ff" stroke="#1864ab" stroke-width="2"/>
<text x="208.3" y="75.0" text-anchor="middle" font-size="14" font-weight="bold" fill="#0b3d6b">Нашатырный спирт</text>
<text x="208.3" y="93.0" text-anchor="middle" font-size="14" font-weight="normal" fill="#0b3d6b">(раствор аммиака)</text>
<rect x="137.9" y="152.0" width="140.7" height="54.0" rx="9" fill="#ebfbee" stroke="#2b8a3e" stroke-width="2"/>
<text x="208.3" y="175.0" text-anchor="middle" font-size="14" font-weight="bold" fill="#154d22">Рецепторы</text>
<text x="208.3" y="193.0" text-anchor="middle" font-size="14" font-weight="normal" fill="#154d22">слизистой носа</text>
<rect x="114.5" y="252.0" width="187.6" height="54.0" rx="9" fill="#fff9db" stroke="#e67700" stroke-width="2"/>
<text x="208.3" y="275.0" text-anchor="middle" font-size="14" font-weight="bold" fill="#6b3a00">Афферентные волокна</text>
<text x="208.3" y="293.0" text-anchor="middle" font-size="14" font-weight="normal" fill="#6b3a00">тройничного нерва</text>
<rect x="92.9" y="352.0" width="230.8" height="54.0" rx="9" fill="#f3f0ff" stroke="#5f3dc4" stroke-width="2"/>
<text x="208.3" y="375.0" text-anchor="middle" font-size="14" font-weight="bold" fill="#321b7a">Дыхательный и</text>
<text x="208.3" y="393.0" text-anchor="middle" font-size="14" font-weight="normal" fill="#321b7a">сосудодвигательный центры</text>
<rect x="125.7" y="452.0" width="165.2" height="54.0" rx="9" fill="#fff0f0" stroke="#c92a2a" stroke-width="2"/>
<text x="208.3" y="475.0" text-anchor="middle" font-size="14" font-weight="bold" fill="#7a1010">Дыхание ↑, АД ↑</text>
<text x="208.3" y="493.0" text-anchor="middle" font-size="14" font-weight="normal" fill="#7a1010">выход из обморока</text>
</svg>