<svg xmlns="http://www.w3.org/2000/svg" viewBox="0 0 571 330" font-family="Arial, Helvetica, sans-serif">
<rect width="571" height="330" fill="#ffffff"/>
<defs><marker id="ar" viewBox="0 0 10 10" refX="9" refY="5" markerWidth="8" markerHeight="8" orient="auto-start-reverse"><path d="M0,0 L10,5 L0,10 z" fill="#343a40"/></marker></defs>
<text x="285" y="30" text-anchor="middle" font-size="18" font-weight="bold" fill="#212529">Причины шума трения плевры</text>
<line x1="285.5" y1="88.0" x2="126.0" y2="141.0" stroke="#343a40" stroke-width="2" marker-end="url(#ar)"/>
<line x1="285.5" y1="88.0" x2="329.4" y2="141.0" stroke="#343a40" stroke-width="2" marker-end="url(#ar)"/>
<line x1="285.5" y1="88.0" x2="488.9" y2="132.0" stroke="#343a40" stroke-width="2" marker-end="url(#ar)"/>
<line x1="126.0" y1="179.0" x2="200.1" y2="232.0" stroke="#343a40" stroke-width="2" marker-end="url(#ar)"/>
<line x1="329.4" y1="179.0" x2="407.6" y2="241.0" stroke="#343a40" stroke-width="2" marker-end="url(#ar)"/>
<rect x="199.8" y="52.0" width="171.2" height="36.0" rx="9" fill="#f1f3f5" stroke="#495057" stroke-width="2"/>
<text x="285.5" y="75.0" text-anchor="middle" font-size="14" font-weight="bold" fill="#212529">Шум трения плевры</text>
<rect x="24.0" y="143.0" width="204.0" height="36.0" rx="9" fill="#fff4e6" stroke="#d9480f" stroke-width="2"/>
<text x="126.0" y="166.0" text-anchor="middle" font-size="14" font-weight="bold" fill="#6e2305">Шероховатость листков</text>
<rect x="252.0" y="143.0" width="154.8" height="36.0" rx="9" fill="#e7f5ff" stroke="#1864ab" stroke-width="2"/>
<text x="329.4" y="166.0" text-anchor="middle" font-size="14" font-weight="bold" fill="#0b3d6b">Сухость листков</text>
<rect x="430.8" y="134.0" width="116.1" height="54.0" rx="9" fill="#f3f0ff" stroke="#5f3dc4" stroke-width="2"/>
<text x="488.9" y="157.0" text-anchor="middle" font-size="14" font-weight="bold" fill="#321b7a">Уремия</text>
<rect x="89.9" y="234.0" width="220.4" height="72.0" rx="9" fill="#fff4e6" stroke="#d9480f" stroke-width="2"/>
<text x="200.1" y="257.0" text-anchor="middle" font-size="14" font-weight="bold" fill="#6e2305">Фибрин — сухой плеврит,</text>
<text x="200.1" y="275.0" text-anchor="middle" font-size="14" font-weight="normal" fill="#6e2305">рубцы, спайки,</text>
<text x="200.1" y="293.0" text-anchor="middle" font-size="14" font-weight="normal" fill="#6e2305">опухоль, туберкулёз</text>
<rect x="334.3" y="243.0" width="146.7" height="54.0" rx="9" fill="#e7f5ff" stroke="#1864ab" stroke-width="2"/>
<text x="407.6" y="266.0" text-anchor="middle" font-size="14" font-weight="bold" fill="#0b3d6b">Рвота, диарея,</text>
<text x="407.6" y="284.0" text-anchor="middle" font-size="14" font-weight="normal" fill="#0b3d6b">кровопотеря</text>
</svg>