<svg xmlns="http://www.w3.org/2000/svg" viewBox="0 0 690 274" font-family="Arial, Helvetica, sans-serif">
<rect width="690" height="274" fill="#ffffff"/>
<defs><marker id="ar" viewBox="0 0 10 10" refX="9" refY="5" markerWidth="8" markerHeight="8" orient="auto-start-reverse"><path d="M0,0 L10,5 L0,10 z" fill="#343a40"/></marker></defs>
<text x="345" y="30" text-anchor="middle" font-size="18" font-weight="bold" fill="#212529">Вынужденное положение → о чём думать</text>
<line x1="312.5" y1="75.0" x2="365.5" y2="75.0" stroke="#343a40" stroke-width="2" marker-end="url(#ar)"/>
<line x1="312.5" y1="127.0" x2="365.5" y2="127.0" stroke="#343a40" stroke-width="2" marker-end="url(#ar)"/>
<line x1="312.5" y1="179.0" x2="365.5" y2="179.0" stroke="#343a40" stroke-width="2" marker-end="url(#ar)"/>
<line x1="312.5" y1="231.0" x2="365.5" y2="231.0" stroke="#343a40" stroke-width="2" marker-end="url(#ar)"/>
<rect x="24.0" y="56.0" width="288.5" height="38.0" rx="9" fill="#e7f5ff" stroke="#1864ab" stroke-width="2"/>
<text x="168.2" y="80.0" text-anchor="middle" font-size="15" font-weight="bold" fill="#0b3d6b">Сидя, ноги опущены (ортопноэ)</text>
<rect x="24.0" y="108.0" width="288.5" height="38.0" rx="9" fill="#e7f5ff" stroke="#1864ab" stroke-width="2"/>
<text x="168.2" y="132.0" text-anchor="middle" font-size="15" font-weight="bold" fill="#0b3d6b">Опора руками, наклон вперёд</text>
<rect x="24.0" y="160.0" width="288.5" height="38.0" rx="9" fill="#e7f5ff" stroke="#1864ab" stroke-width="2"/>
<text x="168.2" y="184.0" text-anchor="middle" font-size="15" font-weight="bold" fill="#0b3d6b">Лёжа на больном боку</text>
<rect x="24.0" y="212.0" width="288.5" height="38.0" rx="9" fill="#e7f5ff" stroke="#1864ab" stroke-width="2"/>
<text x="168.2" y="236.0" text-anchor="middle" font-size="15" font-weight="bold" fill="#0b3d6b">Лёжа на здоровом боку</text>
<rect x="368.5" y="56.0" width="297.2" height="38.0" rx="9" fill="#fff0f0" stroke="#c92a2a" stroke-width="2"/>
<text x="517.1" y="80.0" text-anchor="middle" font-size="15" font-weight="bold" fill="#7a1010">Сердечная недостаточность</text>
<rect x="368.5" y="108.0" width="297.2" height="38.0" rx="9" fill="#fff4e6" stroke="#d9480f" stroke-width="2"/>
<text x="517.1" y="132.0" text-anchor="middle" font-size="15" font-weight="bold" fill="#6e2305">Приступ бронхиальной астмы</text>
<rect x="368.5" y="160.0" width="297.2" height="38.0" rx="9" fill="#ebfbee" stroke="#2b8a3e" stroke-width="2"/>
<text x="517.1" y="184.0" text-anchor="middle" font-size="15" font-weight="bold" fill="#154d22">Плеврит, абсцесс, бронхоэктазы</text>
<rect x="368.5" y="212.0" width="297.2" height="38.0" rx="9" fill="#f3f0ff" stroke="#5f3dc4" stroke-width="2"/>
<text x="517.1" y="236.0" text-anchor="middle" font-size="15" font-weight="bold" fill="#321b7a">Перелом рёбер</text>
</svg>