<svg xmlns="http://www.w3.org/2000/svg" viewBox="0 0 900 380" font-family="Arial, Helvetica, sans-serif">
<rect width="900" height="380" fill="#ffffff"/>
<defs><marker id="ar" viewBox="0 0 10 10" refX="9" refY="5" markerWidth="8" markerHeight="8" orient="auto-start-reverse"><path d="M0,0 L10,5 L0,10 z" fill="#343a40"/></marker></defs>
<text x="450" y="30" text-anchor="middle" font-size="18" font-weight="bold" fill="#212529">Типы телосложения по эпигастральному углу</text>
<path d="M90.0,90 L210.0,90 L197.5,300 L102.5,300 Z" fill="#e7f5ff" stroke="#1864ab" stroke-width="2"/>
<line x1="150" y1="184.5" x2="83.8" y2="279.1" stroke="#212529" stroke-width="3"/>
<line x1="150" y1="184.5" x2="216.2" y2="279.1" stroke="#212529" stroke-width="3"/>
<path d="M130.5,212.4 A34,34 0 0 0 169.5,212.4" fill="none" stroke="#1864ab" stroke-width="2"/>
<circle cx="150" cy="184.5" r="4" fill="#212529"/>
<text x="150" y="244.5" text-anchor="middle" font-size="16" font-weight="bold" fill="#0b3d6b">&lt; 90°</text>
<text x="150" y="332" text-anchor="middle" font-size="15" font-weight="bold" fill="#0b3d6b">Астенический</text>
<path d="M375.0,90 L525.0,90 L515.0,270 L385.0,270 Z" fill="#ebfbee" stroke="#2b8a3e" stroke-width="2"/>
<line x1="450" y1="171.0" x2="380.0" y2="241.0" stroke="#212529" stroke-width="3"/>
<line x1="450" y1="171.0" x2="520.0" y2="241.0" stroke="#212529" stroke-width="3"/>
<path d="M426.0,195.0 A34,34 0 0 0 474.0,195.0" fill="none" stroke="#2b8a3e" stroke-width="2"/>
<circle cx="450" cy="171.0" r="4" fill="#212529"/>
<text x="450" y="231.0" text-anchor="middle" font-size="16" font-weight="bold" fill="#154d22">≈ 90°</text>
<text x="450" y="302" text-anchor="middle" font-size="15" font-weight="bold" fill="#154d22">Нормостенический</text>
<path d="M662.5,90 L837.5,90 L837.5,250 L662.5,250 Z" fill="#fff0f0" stroke="#c92a2a" stroke-width="2"/>
<line x1="750" y1="162.0" x2="675.8" y2="209.3" stroke="#212529" stroke-width="3"/>
<line x1="750" y1="162.0" x2="824.2" y2="209.3" stroke="#212529" stroke-width="3"/>
<path d="M721.3,180.3 A34,34 0 0 0 778.7,180.3" fill="none" stroke="#c92a2a" stroke-width="2"/>
<circle cx="750" cy="162.0" r="4" fill="#212529"/>
<text x="750" y="222.0" text-anchor="middle" font-size="16" font-weight="bold" fill="#7a1010">&gt; 90°</text>
<text x="750" y="282" text-anchor="middle" font-size="15" font-weight="bold" fill="#7a1010">Гиперстенический</text>
<text x="450.0" y="368" text-anchor="middle" font-size="12" fill="#495057">Схема, не в масштабе: точка — мечевидный отросток, линии — рёберные дуги</text>
</svg>